<svg xmlns="http://www.w3.org/2000/svg" version="1.1" xmlns:xlink="http://www.w3.org/1999/xlink" xmlns:svgjs="http://svgjs.com/svgjs" width="1440" height="560" preserveAspectRatio="none" viewBox="0 0 1440 560"><g mask="url(&quot;#SvgjsMask1000&quot;)" fill="none"><rect width="1440" height="560" x="0" y="0" fill="#0e2a47"></rect><path d="M262.49 462.56L262.49 465.36L274.35 465.36L274.35 462.56zM269.4 463.96 a4.95 4.95 0 1 0 9.9 0 a4.95 4.95 0 1 0 -9.9 0zM258.97 483.09L257.9 485.68L274.62 492.6L275.69 490.02zM270.2 491.31 a4.95 4.95 0 1 0 9.9 0 a4.95 4.95 0 1 0 -9.9 0zM247.85 500.71L245.87 502.69L263.88 520.69L265.85 518.72zM259.91 519.7 a4.95 4.95 0 1 0 9.9 0 a4.95 4.95 0 1 0 -9.9 0zM230.84 512.74L228.25 513.81L237.61 536.39L240.19 535.32zM233.95 535.85 a4.95 4.95 0 1 0 9.9 0 a4.95 4.95 0 1 0 -9.9 0zM210.52 517.34L207.72 517.34L207.72 527.88L210.52 527.88zM204.17 527.88 a4.95 4.95 0 1 0 9.9 0 a4.95 4.95 0 1 0 -9.9 0zM189.98 513.81L187.4 512.74L180.92 528.38L183.5 529.45zM177.26 528.91 a4.95 4.95 0 1 0 9.9 0 a4.95 4.95 0 1 0 -9.9 0zM172.36 502.69L170.39 500.71L152.73 518.37L154.71 520.35zM148.77 519.36 a4.95 4.95 0 1 0 9.9 0 a4.95 4.95 0 1 0 -9.9 0zM160.34 485.68L159.27 483.09L147.04 488.16L148.11 490.74zM142.62 489.45 a4.95 4.95 0 1 0 9.9 0 a4.95 4.95 0 1 0 -9.9 0zM155.74 465.36L155.74 462.56L144.41 462.56L144.41 465.36zM139.46 463.96 a4.95 4.95 0 1 0 9.9 0 a4.95 4.95 0 1 0 -9.9 0zM159.27 444.82L160.34 442.24L140.23 433.91L139.16 436.49zM134.74 435.2 a4.95 4.95 0 1 0 9.9 0 a4.95 4.95 0 1 0 -9.9 0zM170.39 427.2L172.36 425.23L163.21 416.08L161.24 418.05zM157.27 417.07 a4.95 4.95 0 1 0 9.9 0 a4.95 4.95 0 1 0 -9.9 0zM187.4 415.18L189.98 414.11L185.38 403L182.8 404.07zM179.14 403.53 a4.95 4.95 0 1 0 9.9 0 a4.95 4.95 0 1 0 -9.9 0zM207.72 410.58L210.52 410.58L210.52 396.4L207.72 396.4zM204.17 396.4 a4.95 4.95 0 1 0 9.9 0 a4.95 4.95 0 1 0 -9.9 0zM228.25 414.11L230.84 415.18L240.56 391.69L237.98 390.62zM234.32 391.16 a4.95 4.95 0 1 0 9.9 0 a4.95 4.95 0 1 0 -9.9 0zM245.87 425.23L247.85 427.2L262.64 412.41L260.67 410.43zM256.7 411.42 a4.95 4.95 0 1 0 9.9 0 a4.95 4.95 0 1 0 -9.9 0zM257.9 442.24L258.97 444.82L279.93 436.14L278.86 433.56zM274.44 434.85 a4.95 4.95 0 1 0 9.9 0 a4.95 4.95 0 1 0 -9.9 0zM155.72 463.96 a53.4 53.4 0 1 0 106.8 0 a53.4 53.4 0 1 0 -106.8 0z" fill="#488fdb"></path><path d="M207.18 410.6 A52.3952 52.3952 0 0 1 256.35 488.86M256.35 488.86 A106.7904 106.7904 0 0 0 207.18 410.6" fill="#2672c3" fill-rule="nonzero"></path><path d="M232.97 482.22 a10.68 10.68 0 1 0 21.36 0 a10.68 10.68 0 1 0 -21.36 0zM230.55 434.87 a10.15 10.15 0 1 0 20.3 0 a10.15 10.15 0 1 0 -20.3 0zM221.4 512.42 a2.67 2.67 0 1 0 5.34 0 a2.67 2.67 0 1 0 -5.34 0zM193.73 449.69 a10.68 10.68 0 1 0 21.36 0 a10.68 10.68 0 1 0 -21.36 0zM156.87 463.5 a10.68 10.68 0 1 0 21.36 0 a10.68 10.68 0 1 0 -21.36 0zM191.97 509.38 a6.41 6.41 0 1 0 12.82 0 a6.41 6.41 0 1 0 -12.82 0zM175.35 487.34 a5.87 5.87 0 1 0 11.74 0 a5.87 5.87 0 1 0 -11.74 0zM195.65 477.67 a2.14 2.14 0 1 0 4.28 0 a2.14 2.14 0 1 0 -4.28 0zM169.13 429.83 a2.14 2.14 0 1 0 4.28 0 a2.14 2.14 0 1 0 -4.28 0zM250.67 455.57 a3.74 3.74 0 1 0 7.48 0 a3.74 3.74 0 1 0 -7.48 0z" fill="#2672c3" fill-rule="nonzero"></path><path d="M1391.97 191.49L1391.97 194.76L1420 194.76L1420 191.49zM1414.22 193.12 a5.78 5.78 0 1 0 11.56 0 a5.78 5.78 0 1 0 -11.56 0zM1387.85 215.45L1386.61 218.46L1403.12 225.3L1404.37 222.29zM1397.97 223.8 a5.78 5.78 0 1 0 11.56 0 a5.78 5.78 0 1 0 -11.56 0zM1374.88 236.01L1372.58 238.31L1386.9 252.64L1389.21 250.33zM1382.28 251.48 a5.78 5.78 0 1 0 11.56 0 a5.78 5.78 0 1 0 -11.56 0zM1355.03 250.03L1352.02 251.28L1361.61 274.44L1364.63 273.2zM1357.34 273.82 a5.78 5.78 0 1 0 11.56 0 a5.78 5.78 0 1 0 -11.56 0zM1331.33 255.4L1328.07 255.4L1328.07 285.82L1331.33 285.82zM1323.92 285.82 a5.78 5.78 0 1 0 11.56 0 a5.78 5.78 0 1 0 -11.56 0zM1307.37 251.28L1304.36 250.03L1297.98 265.44L1300.99 266.69zM1293.7 266.07 a5.78 5.78 0 1 0 11.56 0 a5.78 5.78 0 1 0 -11.56 0zM1286.82 238.31L1284.51 236.01L1278.49 242.03L1280.79 244.34zM1273.86 243.18 a5.78 5.78 0 1 0 11.56 0 a5.78 5.78 0 1 0 -11.56 0zM1272.79 218.46L1271.54 215.45L1255.97 221.9L1257.22 224.91zM1250.82 223.4 a5.78 5.78 0 1 0 11.56 0 a5.78 5.78 0 1 0 -11.56 0zM1267.42 194.76L1267.42 191.49L1237.12 191.49L1237.12 194.76zM1231.34 193.12 a5.78 5.78 0 1 0 11.56 0 a5.78 5.78 0 1 0 -11.56 0zM1271.54 170.8L1272.79 167.79L1264.86 164.5L1263.61 167.52zM1258.46 166.01 a5.78 5.78 0 1 0 11.56 0 a5.78 5.78 0 1 0 -11.56 0zM1284.51 150.24L1286.82 147.94L1276.56 137.68L1274.25 139.98zM1269.62 138.83 a5.78 5.78 0 1 0 11.56 0 a5.78 5.78 0 1 0 -11.56 0zM1304.36 136.22L1307.37 134.97L1297.5 111.14L1294.49 112.39zM1290.22 111.76 a5.78 5.78 0 1 0 11.56 0 a5.78 5.78 0 1 0 -11.56 0zM1328.07 130.85L1331.33 130.85L1331.33 119.55L1328.07 119.55zM1323.92 119.55 a5.78 5.78 0 1 0 11.56 0 a5.78 5.78 0 1 0 -11.56 0zM1352.02 134.97L1355.03 136.22L1360.36 123.36L1357.34 122.12zM1353.07 122.74 a5.78 5.78 0 1 0 11.56 0 a5.78 5.78 0 1 0 -11.56 0zM1372.58 147.94L1374.88 150.24L1388.52 136.61L1386.21 134.3zM1381.58 135.46 a5.78 5.78 0 1 0 11.56 0 a5.78 5.78 0 1 0 -11.56 0zM1386.61 167.79L1387.85 170.8L1408.73 162.15L1407.48 159.14zM1402.33 160.65 a5.78 5.78 0 1 0 11.56 0 a5.78 5.78 0 1 0 -11.56 0zM1267.41 193.12 a62.29 62.29 0 1 0 124.58 0 a62.29 62.29 0 1 0 -124.58 0z" fill="#488fdb"></path><path d="M1391.88 196.81 A61.294399999999996 61.294399999999996 0 0 1 1295.52 245.21M1295.52 245.21 A124.58879999999999 124.58879999999999 0 0 0 1391.88 196.81" fill="#2672c3" fill-rule="nonzero"></path><path d="M1363.88 197.05 a12.46 12.46 0 1 0 24.92 0 a12.46 12.46 0 1 0 -24.92 0zM1281.14 165.02 a12.46 12.46 0 1 0 24.92 0 a12.46 12.46 0 1 0 -24.92 0zM1322.03 166.61 a12.46 12.46 0 1 0 24.92 0 a12.46 12.46 0 1 0 -24.92 0zM1339.31 250.49 a3.11 3.11 0 1 0 6.22 0 a3.11 3.11 0 1 0 -6.22 0zM1268.09 188.97 a3.74 3.74 0 1 0 7.48 0 a3.74 3.74 0 1 0 -7.48 0zM1331.23 197.68 a6.23 6.23 0 1 0 12.46 0 a6.23 6.23 0 1 0 -12.46 0zM1360.47 228.08 a6.85 6.85 0 1 0 13.7 0 a6.85 6.85 0 1 0 -13.7 0zM1318.98 222.56 a8.1 8.1 0 1 0 16.2 0 a8.1 8.1 0 1 0 -16.2 0zM1293.45 222.24 a6.23 6.23 0 1 0 12.46 0 a6.23 6.23 0 1 0 -12.46 0zM1355.35 152.14 a2.49 2.49 0 1 0 4.98 0 a2.49 2.49 0 1 0 -4.98 0z" fill="#2672c3" fill-rule="nonzero"></path><path d="M906.14 313.66L906.14 317.38L923.07 317.38L923.07 313.66zM916.47 315.52 a6.6 6.6 0 1 0 13.2 0 a6.6 6.6 0 1 0 -13.2 0zM901.43 341.03L900.01 344.48L908.93 348.17L910.36 344.73zM903.04 346.45 a6.6 6.6 0 1 0 13.2 0 a6.6 6.6 0 1 0 -13.2 0zM886.61 364.53L883.97 367.16L894.47 377.66L897.1 375.02zM889.19 376.34 a6.6 6.6 0 1 0 13.2 0 a6.6 6.6 0 1 0 -13.2 0zM863.92 380.56L860.48 381.99L873.6 413.65L877.04 412.22zM868.72 412.93 a6.6 6.6 0 1 0 13.2 0 a6.6 6.6 0 1 0 -13.2 0zM836.83 386.69L833.1 386.69L833.1 409.18L836.83 409.18zM828.37 409.18 a6.6 6.6 0 1 0 13.2 0 a6.6 6.6 0 1 0 -13.2 0zM809.45 381.99L806.01 380.56L801.77 390.81L805.21 392.23zM796.89 391.52 a6.6 6.6 0 1 0 13.2 0 a6.6 6.6 0 1 0 -13.2 0zM785.96 367.16L783.33 364.53L763.4 384.45L766.04 387.09zM758.12 385.77 a6.6 6.6 0 1 0 13.2 0 a6.6 6.6 0 1 0 -13.2 0zM769.93 344.48L768.5 341.03L760.24 344.46L761.67 347.9zM754.36 346.18 a6.6 6.6 0 1 0 13.2 0 a6.6 6.6 0 1 0 -13.2 0zM763.8 317.38L763.8 313.66L742.96 313.66L742.96 317.38zM736.36 315.52 a6.6 6.6 0 1 0 13.2 0 a6.6 6.6 0 1 0 -13.2 0zM768.5 290.01L769.93 286.56L760.59 282.69L759.16 286.14zM753.28 284.42 a6.6 6.6 0 1 0 13.2 0 a6.6 6.6 0 1 0 -13.2 0zM783.33 266.51L785.96 263.88L776.17 254.09L773.53 256.72zM768.25 255.4 a6.6 6.6 0 1 0 13.2 0 a6.6 6.6 0 1 0 -13.2 0zM806.01 250.48L809.45 249.06L803.21 233.99L799.77 235.41zM794.89 234.7 a6.6 6.6 0 1 0 13.2 0 a6.6 6.6 0 1 0 -13.2 0zM833.1 244.35L836.83 244.35L836.83 214.14L833.1 214.14zM828.37 214.14 a6.6 6.6 0 1 0 13.2 0 a6.6 6.6 0 1 0 -13.2 0zM860.48 249.06L863.92 250.48L867.77 241.21L864.32 239.78zM859.45 240.49 a6.6 6.6 0 1 0 13.2 0 a6.6 6.6 0 1 0 -13.2 0zM883.97 263.88L886.61 266.51L906.42 246.7L903.79 244.07zM898.51 245.38 a6.6 6.6 0 1 0 13.2 0 a6.6 6.6 0 1 0 -13.2 0zM900.01 286.56L901.43 290.01L932.63 277.08L931.21 273.64zM925.32 275.36 a6.6 6.6 0 1 0 13.2 0 a6.6 6.6 0 1 0 -13.2 0zM763.78 315.52 a71.19 71.19 0 1 0 142.38 0 a71.19 71.19 0 1 0 -142.38 0z" fill="#488fdb"></path><path d="M902.88 294.17 A70.1936 70.1936 0 0 1 819.64 385.05M819.64 385.05 A142.3872 142.3872 0 0 0 902.88 294.17" fill="#2672c3" fill-rule="nonzero"></path><path d="M778.47 336.98 a14.24 14.24 0 1 0 28.48 0 a14.24 14.24 0 1 0 -28.48 0zM843.83 264.3 a14.24 14.24 0 1 0 28.48 0 a14.24 14.24 0 1 0 -28.48 0zM806.8 378.84 a2.85 2.85 0 1 0 5.7 0 a2.85 2.85 0 1 0 -5.7 0zM819.48 302.2 a14.24 14.24 0 1 0 28.48 0 a14.24 14.24 0 1 0 -28.48 0zM890.03 302.9 a7.12 7.12 0 1 0 14.24 0 a7.12 7.12 0 1 0 -14.24 0zM817.72 353.84 a8.54 8.54 0 1 0 17.08 0 a8.54 8.54 0 1 0 -17.08 0zM777.9 294.52 a13.53 13.53 0 1 0 27.06 0 a13.53 13.53 0 1 0 -27.06 0zM814.97 265.04 a7.12 7.12 0 1 0 14.24 0 a7.12 7.12 0 1 0 -14.24 0zM844.7 336.68 a9.26 9.26 0 1 0 18.52 0 a9.26 9.26 0 1 0 -18.52 0zM868.24 314.93 a4.98 4.98 0 1 0 9.96 0 a4.98 4.98 0 1 0 -9.96 0z" fill="#2672c3" fill-rule="nonzero"></path><path d="M726.93 99.8L726.93 101.67L741.32 101.67L741.32 99.8zM738.02 100.73 a3.3 3.3 0 1 0 6.6 0 a3.3 3.3 0 1 0 -6.6 0zM724.58 113.49L723.87 115.21L736.21 120.33L736.93 118.6zM733.27 119.46 a3.3 3.3 0 1 0 6.6 0 a3.3 3.3 0 1 0 -6.6 0zM717.17 125.24L715.85 126.56L721.88 132.58L723.2 131.26zM719.24 131.92 a3.3 3.3 0 1 0 6.6 0 a3.3 3.3 0 1 0 -6.6 0zM705.83 133.25L704.11 133.97L710.67 149.8L712.39 149.09zM708.23 149.45 a3.3 3.3 0 1 0 6.6 0 a3.3 3.3 0 1 0 -6.6 0zM692.28 136.32L690.42 136.32L690.42 151.36L692.28 151.36zM688.05 151.36 a3.3 3.3 0 1 0 6.6 0 a3.3 3.3 0 1 0 -6.6 0zM678.59 133.97L676.87 133.25L674.68 138.55L676.4 139.26zM672.24 138.9 a3.3 3.3 0 1 0 6.6 0 a3.3 3.3 0 1 0 -6.6 0zM666.85 126.56L665.53 125.24L655.39 135.38L656.71 136.69zM652.75 136.04 a3.3 3.3 0 1 0 6.6 0 a3.3 3.3 0 1 0 -6.6 0zM658.83 115.21L658.12 113.49L643.94 119.36L644.65 121.09zM640.99 120.23 a3.3 3.3 0 1 0 6.6 0 a3.3 3.3 0 1 0 -6.6 0zM655.77 101.67L655.77 99.8L650.97 99.8L650.97 101.67zM647.67 100.73 a3.3 3.3 0 1 0 6.6 0 a3.3 3.3 0 1 0 -6.6 0zM658.12 87.98L658.83 86.26L654.24 84.35L653.53 86.08zM650.58 85.21 a3.3 3.3 0 1 0 6.6 0 a3.3 3.3 0 1 0 -6.6 0zM665.53 76.23L666.85 74.91L655.43 63.5L654.12 64.82zM651.47 64.16 a3.3 3.3 0 1 0 6.6 0 a3.3 3.3 0 1 0 -6.6 0zM676.87 68.21L678.59 67.5L676.68 62.87L674.95 63.59zM672.51 63.23 a3.3 3.3 0 1 0 6.6 0 a3.3 3.3 0 1 0 -6.6 0zM690.42 65.15L692.28 65.15L692.28 55.69L690.42 55.69zM688.05 55.69 a3.3 3.3 0 1 0 6.6 0 a3.3 3.3 0 1 0 -6.6 0zM704.11 67.5L705.83 68.21L707.88 63.25L706.16 62.54zM703.72 62.9 a3.3 3.3 0 1 0 6.6 0 a3.3 3.3 0 1 0 -6.6 0zM715.85 74.91L717.17 76.23L728.89 64.51L727.57 63.2zM724.93 63.86 a3.3 3.3 0 1 0 6.6 0 a3.3 3.3 0 1 0 -6.6 0zM723.87 86.26L724.58 87.98L733.44 84.31L732.73 82.59zM729.79 83.45 a3.3 3.3 0 1 0 6.6 0 a3.3 3.3 0 1 0 -6.6 0zM655.75 100.73 a35.6 35.6 0 1 0 71.2 0 a35.6 35.6 0 1 0 -71.2 0z" fill="#488fdb"></path><path d="M718.27 124.03 A34.5968 34.5968 0 0 1 657.74 112.47M657.74 112.47 A71.1936 71.1936 0 0 0 718.27 124.03" fill="#2672c3" fill-rule="nonzero"></path><path d="M676 131.6 a1.42 1.42 0 1 0 2.84 0 a1.42 1.42 0 1 0 -2.84 0zM696.5 71.11 a4.27 4.27 0 1 0 8.54 0 a4.27 4.27 0 1 0 -8.54 0zM670.32 79.51 a7.12 7.12 0 1 0 14.24 0 a7.12 7.12 0 1 0 -14.24 0zM711.65 101.21 a7.12 7.12 0 1 0 14.24 0 a7.12 7.12 0 1 0 -14.24 0zM701.65 85.1 a2.85 2.85 0 1 0 5.7 0 a2.85 2.85 0 1 0 -5.7 0zM706.98 124.05 a4.63 4.63 0 1 0 9.26 0 a4.63 4.63 0 1 0 -9.26 0zM680.75 120.73 a4.98 4.98 0 1 0 9.96 0 a4.98 4.98 0 1 0 -9.96 0zM703.56 111.11 a2.14 2.14 0 1 0 4.28 0 a2.14 2.14 0 1 0 -4.28 0zM660.46 116.25 a6.76 6.76 0 1 0 13.52 0 a6.76 6.76 0 1 0 -13.52 0zM688.25 101.3 a5.7 5.7 0 1 0 11.4 0 a5.7 5.7 0 1 0 -11.4 0z" fill="#2672c3" fill-rule="nonzero"></path><path d="M635.25 445.28L635.25 448.55L655.59 448.55L655.59 445.28zM649.81 446.92 a5.78 5.78 0 1 0 11.56 0 a5.78 5.78 0 1 0 -11.56 0zM631.13 469.24L629.88 472.25L644.83 478.44L646.08 475.43zM639.68 476.94 a5.78 5.78 0 1 0 11.56 0 a5.78 5.78 0 1 0 -11.56 0zM618.16 489.8L615.85 492.1L624.28 500.52L626.58 498.22zM619.65 499.37 a5.78 5.78 0 1 0 11.56 0 a5.78 5.78 0 1 0 -11.56 0zM598.31 503.82L595.3 505.07L598.64 513.14L601.65 511.89zM594.37 512.51 a5.78 5.78 0 1 0 11.56 0 a5.78 5.78 0 1 0 -11.56 0zM574.6 509.19L571.34 509.19L571.34 519.65L574.6 519.65zM567.19 519.65 a5.78 5.78 0 1 0 11.56 0 a5.78 5.78 0 1 0 -11.56 0zM550.65 505.07L547.64 503.82L539.24 524.08L542.26 525.33zM534.97 524.71 a5.78 5.78 0 1 0 11.56 0 a5.78 5.78 0 1 0 -11.56 0zM530.09 492.1L527.79 489.8L518.88 498.7L521.19 501zM514.26 499.85 a5.78 5.78 0 1 0 11.56 0 a5.78 5.78 0 1 0 -11.56 0zM516.07 472.25L514.82 469.24L504.1 473.68L505.35 476.69zM498.94 475.19 a5.78 5.78 0 1 0 11.56 0 a5.78 5.78 0 1 0 -11.56 0zM510.7 448.55L510.7 445.28L494.84 445.28L494.84 448.55zM489.06 446.92 a5.78 5.78 0 1 0 11.56 0 a5.78 5.78 0 1 0 -11.56 0zM514.82 424.59L516.07 421.58L489.49 410.57L488.24 413.58zM483.08 412.07 a5.78 5.78 0 1 0 11.56 0 a5.78 5.78 0 1 0 -11.56 0zM527.79 404.03L530.09 401.73L516.26 387.9L513.96 390.2zM509.33 389.05 a5.78 5.78 0 1 0 11.56 0 a5.78 5.78 0 1 0 -11.56 0zM547.64 390.01L550.65 388.76L545.36 376L542.35 377.25zM538.08 376.62 a5.78 5.78 0 1 0 11.56 0 a5.78 5.78 0 1 0 -11.56 0zM571.34 384.64L574.6 384.64L574.6 371.95L571.34 371.95zM567.19 371.95 a5.78 5.78 0 1 0 11.56 0 a5.78 5.78 0 1 0 -11.56 0zM595.3 388.76L598.31 390.01L603.87 376.59L600.85 375.34zM596.58 375.97 a5.78 5.78 0 1 0 11.56 0 a5.78 5.78 0 1 0 -11.56 0zM615.85 401.73L618.16 404.03L627.51 394.69L625.2 392.38zM620.58 393.53 a5.78 5.78 0 1 0 11.56 0 a5.78 5.78 0 1 0 -11.56 0zM629.88 421.58L631.13 424.59L648.55 417.38L647.3 414.36zM642.14 415.87 a5.78 5.78 0 1 0 11.56 0 a5.78 5.78 0 1 0 -11.56 0zM510.68 446.92 a62.29 62.29 0 1 0 124.58 0 a62.29 62.29 0 1 0 -124.58 0z" fill="#488fdb"></path><path d="M546.27 503.2 A61.294399999999996 61.294399999999996 0 0 1 537.48 395.73M537.48 395.73 A124.58879999999999 124.58879999999999 0 0 0 546.27 503.2" fill="#2672c3" fill-rule="nonzero"></path><path d="M547.7 465.41 a12.46 12.46 0 1 0 24.92 0 a12.46 12.46 0 1 0 -24.92 0zM604.33 413.85 a9.34 9.34 0 1 0 18.68 0 a9.34 9.34 0 1 0 -18.68 0zM517.24 428.99 a12.46 12.46 0 1 0 24.92 0 a12.46 12.46 0 1 0 -24.92 0zM553.95 416.99 a12.46 12.46 0 1 0 24.92 0 a12.46 12.46 0 1 0 -24.92 0zM532.21 475.61 a2.49 2.49 0 1 0 4.98 0 a2.49 2.49 0 1 0 -4.98 0zM587.53 488.23 a12.46 12.46 0 1 0 24.92 0 a12.46 12.46 0 1 0 -24.92 0zM617.64 466.61 a6.85 6.85 0 1 0 13.7 0 a6.85 6.85 0 1 0 -13.7 0zM590.18 426.63 a2.49 2.49 0 1 0 4.98 0 a2.49 2.49 0 1 0 -4.98 0zM624.41 443.39 a3.74 3.74 0 1 0 7.48 0 a3.74 3.74 0 1 0 -7.48 0zM544.7 494.68 a5.61 5.61 0 1 0 11.22 0 a5.61 5.61 0 1 0 -11.22 0z" fill="#2672c3" fill-rule="nonzero"></path><path d="M517.33 142.79L517.33 146.05L528.83 146.05L528.83 142.79zM523.05 144.42 a5.78 5.78 0 1 0 11.56 0 a5.78 5.78 0 1 0 -11.56 0zM513.21 166.74L511.97 169.76L533.83 178.81L535.07 175.8zM528.67 177.3 a5.78 5.78 0 1 0 11.56 0 a5.78 5.78 0 1 0 -11.56 0zM500.24 187.3L497.94 189.61L508.96 200.62L511.26 198.32zM504.33 199.47 a5.78 5.78 0 1 0 11.56 0 a5.78 5.78 0 1 0 -11.56 0zM480.4 201.33L477.38 202.58L484.48 219.71L487.49 218.47zM480.21 219.09 a5.78 5.78 0 1 0 11.56 0 a5.78 5.78 0 1 0 -11.56 0zM456.69 206.69L453.43 206.69L453.43 218.09L456.69 218.09zM449.28 218.09 a5.78 5.78 0 1 0 11.56 0 a5.78 5.78 0 1 0 -11.56 0zM432.73 202.58L429.72 201.33L425.68 211.08L428.69 212.33zM421.41 211.71 a5.78 5.78 0 1 0 11.56 0 a5.78 5.78 0 1 0 -11.56 0zM412.18 189.61L409.87 187.3L391.11 206.06L393.42 208.36zM386.48 207.21 a5.78 5.78 0 1 0 11.56 0 a5.78 5.78 0 1 0 -11.56 0zM398.15 169.76L396.9 166.74L371.75 177.16L373 180.17zM366.6 178.67 a5.78 5.78 0 1 0 11.56 0 a5.78 5.78 0 1 0 -11.56 0zM392.78 146.05L392.78 142.79L377.35 142.79L377.35 146.05zM371.57 144.42 a5.78 5.78 0 1 0 11.56 0 a5.78 5.78 0 1 0 -11.56 0zM396.9 122.09L398.15 119.08L389.95 115.69L388.71 118.7zM383.55 117.19 a5.78 5.78 0 1 0 11.56 0 a5.78 5.78 0 1 0 -11.56 0zM409.87 101.54L412.18 99.23L406.1 93.16L403.8 95.46zM399.17 94.31 a5.78 5.78 0 1 0 11.56 0 a5.78 5.78 0 1 0 -11.56 0zM429.72 87.51L432.73 86.26L428.67 76.46L425.66 77.71zM421.39 77.08 a5.78 5.78 0 1 0 11.56 0 a5.78 5.78 0 1 0 -11.56 0zM453.43 82.15L456.69 82.15L456.69 55.07L453.43 55.07zM449.28 55.07 a5.78 5.78 0 1 0 11.56 0 a5.78 5.78 0 1 0 -11.56 0zM477.38 86.26L480.4 87.51L491.31 61.16L488.3 59.91zM484.02 60.54 a5.78 5.78 0 1 0 11.56 0 a5.78 5.78 0 1 0 -11.56 0zM497.94 99.23L500.24 101.54L516.27 85.51L513.97 83.2zM509.34 84.35 a5.78 5.78 0 1 0 11.56 0 a5.78 5.78 0 1 0 -11.56 0zM511.97 119.08L513.21 122.09L537.01 112.24L535.77 109.22zM530.61 110.73 a5.78 5.78 0 1 0 11.56 0 a5.78 5.78 0 1 0 -11.56 0zM392.77 144.42 a62.29 62.29 0 1 0 124.58 0 a62.29 62.29 0 1 0 -124.58 0z" fill="#488fdb"></path><path d="M430.15 201.52 A61.294399999999996 61.294399999999996 0 0 1 417.96 94.37M417.96 94.37 A124.58879999999999 124.58879999999999 0 0 0 430.15 201.52" fill="#2672c3" fill-rule="nonzero"></path><path d="M411.39 110.29 a12.46 12.46 0 1 0 24.92 0 a12.46 12.46 0 1 0 -24.92 0zM456.68 86.27 a3.74 3.74 0 1 0 7.48 0 a3.74 3.74 0 1 0 -7.48 0zM426.03 181.25 a12.46 12.46 0 1 0 24.92 0 a12.46 12.46 0 1 0 -24.92 0zM477.97 155.1 a12.46 12.46 0 1 0 24.92 0 a12.46 12.46 0 1 0 -24.92 0zM396.31 152.71 a12.46 12.46 0 1 0 24.92 0 a12.46 12.46 0 1 0 -24.92 0zM433.34 145.4 a8.72 8.72 0 1 0 17.44 0 a8.72 8.72 0 1 0 -17.44 0zM463.09 187.89 a8.1 8.1 0 1 0 16.2 0 a8.1 8.1 0 1 0 -16.2 0zM454.76 106.03 a3.11 3.11 0 1 0 6.22 0 a3.11 3.11 0 1 0 -6.22 0zM469.35 118.58 a5.61 5.61 0 1 0 11.22 0 a5.61 5.61 0 1 0 -11.22 0zM500.24 119.95 a5.61 5.61 0 1 0 11.22 0 a5.61 5.61 0 1 0 -11.22 0z" fill="#2672c3" fill-rule="nonzero"></path><path d="M1256.53 486.2L1256.53 488.53L1267.39 488.53L1267.39 486.2zM1263.26 487.37 a4.13 4.13 0 1 0 8.26 0 a4.13 4.13 0 1 0 -8.26 0zM1253.59 503.31L1252.7 505.47L1268.83 512.15L1269.73 510zM1265.15 511.07 a4.13 4.13 0 1 0 8.26 0 a4.13 4.13 0 1 0 -8.26 0zM1244.33 518L1242.68 519.64L1253.03 530L1254.68 528.35zM1249.73 529.17 a4.13 4.13 0 1 0 8.26 0 a4.13 4.13 0 1 0 -8.26 0zM1230.15 528.02L1228 528.91L1234.47 544.54L1236.63 543.65zM1231.42 544.09 a4.13 4.13 0 1 0 8.26 0 a4.13 4.13 0 1 0 -8.26 0zM1213.22 531.85L1210.89 531.85L1210.89 537.46L1213.22 537.46zM1207.92 537.46 a4.13 4.13 0 1 0 8.26 0 a4.13 4.13 0 1 0 -8.26 0zM1196.11 528.91L1193.96 528.02L1188.93 540.14L1191.09 541.03zM1185.88 540.58 a4.13 4.13 0 1 0 8.26 0 a4.13 4.13 0 1 0 -8.26 0zM1181.42 519.64L1179.78 518L1173.12 524.65L1174.77 526.3zM1169.82 525.47 a4.13 4.13 0 1 0 8.26 0 a4.13 4.13 0 1 0 -8.26 0zM1171.4 505.47L1170.51 503.31L1156.41 509.15L1157.31 511.31zM1152.73 510.23 a4.13 4.13 0 1 0 8.26 0 a4.13 4.13 0 1 0 -8.26 0zM1167.57 488.53L1167.57 486.2L1152.1 486.2L1152.1 488.53zM1147.97 487.37 a4.13 4.13 0 1 0 8.26 0 a4.13 4.13 0 1 0 -8.26 0zM1170.51 471.42L1171.4 469.27L1156.36 463.04L1155.47 465.19zM1151.79 464.12 a4.13 4.13 0 1 0 8.26 0 a4.13 4.13 0 1 0 -8.26 0zM1179.78 456.74L1181.42 455.09L1167.84 441.51L1166.19 443.16zM1162.89 442.33 a4.13 4.13 0 1 0 8.26 0 a4.13 4.13 0 1 0 -8.26 0zM1193.96 446.72L1196.11 445.83L1191.76 435.33L1189.61 436.22zM1186.55 435.78 a4.13 4.13 0 1 0 8.26 0 a4.13 4.13 0 1 0 -8.26 0zM1210.89 442.89L1213.22 442.89L1213.22 429.85L1210.89 429.85zM1207.92 429.85 a4.13 4.13 0 1 0 8.26 0 a4.13 4.13 0 1 0 -8.26 0zM1228 445.83L1230.15 446.72L1237.79 428.29L1235.63 427.4zM1232.58 427.84 a4.13 4.13 0 1 0 8.26 0 a4.13 4.13 0 1 0 -8.26 0zM1242.68 455.09L1244.33 456.74L1255.46 445.61L1253.81 443.96zM1250.51 444.79 a4.13 4.13 0 1 0 8.26 0 a4.13 4.13 0 1 0 -8.26 0zM1252.7 469.27L1253.59 471.42L1261.96 467.96L1261.06 465.81zM1257.38 466.88 a4.13 4.13 0 1 0 8.26 0 a4.13 4.13 0 1 0 -8.26 0zM1167.55 487.37 a44.5 44.5 0 1 0 89 0 a44.5 44.5 0 1 0 -89 0z" fill="#488fdb"></path><path d="M1220.86 443.75 A43.496 43.496 0 0 1 1245.48 516.74M1245.48 516.74 A88.992 88.992 0 0 0 1220.86 443.75" fill="#2672c3" fill-rule="nonzero"></path><path d="M1206.8 493.9 a8.9 8.9 0 1 0 17.8 0 a8.9 8.9 0 1 0 -17.8 0zM1181.9 478.18 a8.9 8.9 0 1 0 17.8 0 a8.9 8.9 0 1 0 -17.8 0zM1227.2 449.64 a2.67 2.67 0 1 0 5.34 0 a2.67 2.67 0 1 0 -5.34 0zM1213.81 450.12 a2.22 2.22 0 1 0 4.44 0 a2.22 2.22 0 1 0 -4.44 0zM1235.96 510.8 a6.23 6.23 0 1 0 12.46 0 a6.23 6.23 0 1 0 -12.46 0zM1229.97 463.4 a2.22 2.22 0 1 0 4.44 0 a2.22 2.22 0 1 0 -4.44 0zM1175.52 511.83 a2.67 2.67 0 1 0 5.34 0 a2.67 2.67 0 1 0 -5.34 0zM1193.14 451.05 a5.34 5.34 0 1 0 10.68 0 a5.34 5.34 0 1 0 -10.68 0zM1233.12 488.69 a1.78 1.78 0 1 0 3.56 0 a1.78 1.78 0 1 0 -3.56 0zM1212.88 523.23 a7.56 7.56 0 1 0 15.12 0 a7.56 7.56 0 1 0 -15.12 0z" fill="#2672c3" fill-rule="nonzero"></path><path d="M170.92 74.28L170.92 76.61L177.21 76.61L177.21 74.28zM173.08 75.45 a4.13 4.13 0 1 0 8.26 0 a4.13 4.13 0 1 0 -8.26 0zM167.98 91.39L167.09 93.54L174.12 96.46L175.01 94.3zM170.43 95.38 a4.13 4.13 0 1 0 8.26 0 a4.13 4.13 0 1 0 -8.26 0zM158.71 106.08L157.07 107.72L167.46 118.12L169.11 116.47zM164.15 117.29 a4.13 4.13 0 1 0 8.26 0 a4.13 4.13 0 1 0 -8.26 0zM144.53 116.1L142.38 116.99L148.88 132.67L151.03 131.78zM145.83 132.23 a4.13 4.13 0 1 0 8.26 0 a4.13 4.13 0 1 0 -8.26 0zM127.6 119.93L125.27 119.93L125.27 125.6L127.6 125.6zM122.31 125.6 a4.13 4.13 0 1 0 8.26 0 a4.13 4.13 0 1 0 -8.26 0zM110.49 116.99L108.34 116.1L100.29 135.52L102.44 136.42zM97.24 135.97 a4.13 4.13 0 1 0 8.26 0 a4.13 4.13 0 1 0 -8.26 0zM95.81 107.72L94.16 106.08L84.89 115.35L86.54 116.99zM81.58 116.17 a4.13 4.13 0 1 0 8.26 0 a4.13 4.13 0 1 0 -8.26 0zM85.79 93.54L84.9 91.39L76.42 94.9L77.32 97.05zM72.74 95.98 a4.13 4.13 0 1 0 8.26 0 a4.13 4.13 0 1 0 -8.26 0zM81.96 76.61L81.96 74.28L67.52 74.28L67.52 76.61zM63.39 75.45 a4.13 4.13 0 1 0 8.26 0 a4.13 4.13 0 1 0 -8.26 0zM84.9 59.5L85.79 57.35L70.39 50.97L69.49 53.12zM65.81 52.05 a4.13 4.13 0 1 0 8.26 0 a4.13 4.13 0 1 0 -8.26 0zM94.16 44.82L95.81 43.17L90.94 38.3L89.29 39.95zM85.98 39.12 a4.13 4.13 0 1 0 8.26 0 a4.13 4.13 0 1 0 -8.26 0zM108.34 34.8L110.49 33.91L104.31 18.98L102.15 19.87zM99.1 19.42 a4.13 4.13 0 1 0 8.26 0 a4.13 4.13 0 1 0 -8.26 0zM125.27 30.97L127.6 30.97L127.6 20.89L125.27 20.89zM122.31 20.89 a4.13 4.13 0 1 0 8.26 0 a4.13 4.13 0 1 0 -8.26 0zM142.38 33.91L144.53 34.8L148.5 25.23L146.35 24.33zM143.29 24.78 a4.13 4.13 0 1 0 8.26 0 a4.13 4.13 0 1 0 -8.26 0zM157.07 43.17L158.71 44.82L164.25 39.28L162.6 37.63zM159.3 38.46 a4.13 4.13 0 1 0 8.26 0 a4.13 4.13 0 1 0 -8.26 0zM167.09 57.35L167.98 59.5L179.72 54.64L178.83 52.48zM175.14 53.56 a4.13 4.13 0 1 0 8.26 0 a4.13 4.13 0 1 0 -8.26 0zM81.94 75.45 a44.5 44.5 0 1 0 89 0 a44.5 44.5 0 1 0 -89 0z" fill="#488fdb"></path><path d="M126.36 119.94 A43.496 43.496 0 0 1 87.89 53.21M87.89 53.21 A88.992 88.992 0 0 0 126.36 119.94" fill="#2672c3" fill-rule="nonzero"></path><path d="M102.55 67.43 a8.9 8.9 0 1 0 17.8 0 a8.9 8.9 0 1 0 -17.8 0zM139.19 38.73 a4 4 0 1 0 8 0 a4 4 0 1 0 -8 0zM147.03 91.13 a8.9 8.9 0 1 0 17.8 0 a8.9 8.9 0 1 0 -17.8 0zM136.97 62.47 a8.9 8.9 0 1 0 17.8 0 a8.9 8.9 0 1 0 -17.8 0zM83.94 74.95 a5.34 5.34 0 1 0 10.68 0 a5.34 5.34 0 1 0 -10.68 0zM104.75 113.21 a1.78 1.78 0 1 0 3.56 0 a1.78 1.78 0 1 0 -3.56 0zM117.83 105.47 a8.9 8.9 0 1 0 17.8 0 a8.9 8.9 0 1 0 -17.8 0zM134.79 81.53 a2.67 2.67 0 1 0 5.34 0 a2.67 2.67 0 1 0 -5.34 0zM123.95 53.45 a2.67 2.67 0 1 0 5.34 0 a2.67 2.67 0 1 0 -5.34 0zM88.06 92.71 a3.56 3.56 0 1 0 7.12 0 a3.56 3.56 0 1 0 -7.12 0z" fill="#2672c3" fill-rule="nonzero"></path></g><defs><mask id="SvgjsMask1000"><rect width="1440" height="560" fill="#ffffff"></rect></mask></defs></svg>